<svg width="2500" height="2493" viewBox="0 0 2500 2493" fill="none" xmlns="http://www.w3.org/2000/svg">
<path d="M1244.61 2470.24C1921.73 2470.24 2470.65 1921.32 2470.65 1244.2C2470.65 567.081 1921.73 18.1663 1244.61 18.1663C567.491 18.1663 18.5762 567.081 18.5762 1244.2C18.5762 1921.32 567.491 2470.24 1244.61 2470.24Z" fill="white"/>
<path d="M2041.41 1348.46L1980.41 1367.25L1994.21 1372.88L1972.84 1386.41C1975.12 1373.96 1977.32 1361.48 1979.05 1348.87L2012.48 1320.94L2013.26 1335.65L2050.9 1284.21L1992.91 1310.83L2007.19 1314.56L1980.54 1336.87C1982.43 1321.48 1983.76 1305.98 1984.78 1290.39L2017.7 1253.94L2020.48 1268.45L2050.89 1212.44L1996.88 1246.55L2011.73 1248.21L1985.46 1276.52C1985.69 1266.72 1986 1257.02 1986 1247.22C1986.04 1175.62 1975.64 1104.39 1955.14 1035.78C1921.81 1038.86 1888.38 1028.21 1872.34 1025.13C1915.03 1050.16 1929.81 1077.21 1936.15 1108.31C1902.01 1115.94 1856.33 1104.75 1831.31 1085.18C1855.79 1106.54 1871.22 1140.18 1872.3 1174.87C1837.07 1176.63 1804.55 1160.15 1780.65 1136.15C1795.97 1153.27 1815.37 1196.57 1810.83 1227.4C1781.36 1224.24 1746.84 1204.95 1727.95 1181.96C1743.59 1216.41 1751.01 1244.35 1749.11 1275.21C1719.92 1269.68 1697.75 1261.41 1671.57 1236.38C1684.18 1267.85 1688.82 1299.52 1685.98 1325.49C1652.24 1313.55 1629.79 1300.03 1610.77 1268.26C1620.91 1296.33 1627.48 1333.12 1620.5 1354.65C1591.92 1346.07 1572.99 1328.85 1558.17 1299.65C1572.85 1330.64 1570.99 1366.65 1566.11 1385.3C1554.1 1382.96 1538.44 1374.66 1530.27 1365.47C1529.77 1370.92 1529.38 1376.38 1529.12 1381.84C1527.59 1402.8 1523.49 1422.43 1516.64 1440.44C1519.43 1443.54 1522.17 1446.69 1524.85 1449.9C1539.87 1466.04 1560.45 1481.4 1576.66 1486.55C1569.64 1487.56 1560.04 1493.57 1550.38 1494.69C1561.1 1506.83 1582.94 1509.54 1596.43 1523.34C1585.95 1524.6 1583.48 1532.19 1570.69 1530.76C1595.04 1549.58 1617.35 1550.19 1629.8 1551.69C1634.85 1552.23 1651.23 1553.79 1661.6 1552.16C1676.28 1549.92 1691.41 1557.22 1697.27 1560.6C1706.3 1565.9 1705.82 1578.31 1704.02 1584.61C1702.94 1588.34 1701.34 1592.82 1694.57 1596.31C1690.7 1597.46 1688.16 1597.8 1692.09 1594.89C1695.62 1592.31 1698.84 1576.58 1690.71 1570.41C1684.74 1566.07 1676.33 1562.47 1666.43 1562.99C1655.44 1563.49 1638.66 1564.41 1630.52 1563.67C1623.1 1562.82 1618.42 1572.62 1617.36 1576.76C1614.71 1586.55 1611.67 1598.66 1597.53 1592.66C1580.13 1582.69 1555.42 1583.54 1527 1572.04C1531 1580.76 1529.31 1588.35 1533.65 1598.12C1508.32 1591.88 1501.91 1578.99 1477.77 1570.51C1481.8 1579.3 1480.61 1586.18 1486.07 1594.45C1465.76 1590.92 1446.81 1572.61 1418.56 1565.08C1417.64 1565.35 1416.86 1565.73 1416.02 1565.9C1405.75 1568.98 1396.28 1571.9 1387.71 1574.65C1407.71 1597.3 1424.26 1625.1 1431.99 1658.73C1431.99 1658.73 1417.89 1659.14 1397.03 1651.89C1403.3 1671 1406.66 1690.95 1407 1711.06C1407 1711.06 1391.17 1708.14 1369.43 1694.65C1371.53 1715.37 1370.56 1736.29 1366.55 1756.73C1366.55 1756.73 1348.24 1749.17 1326.61 1727.2C1324.1 1747.82 1318.98 1768.6 1310.13 1789.35C1310.13 1789.35 1293.35 1777.99 1276.22 1751.51C1268.94 1772.96 1258.64 1793.26 1245.64 1811.8C1245.64 1811.8 1227.4 1792.61 1215.02 1753.95C1198.54 1778.74 1182.84 1789.36 1182.84 1789.36C1174.4 1769.49 1168.83 1748.53 1166.29 1727.1C1144.7 1749.18 1126.38 1756.74 1126.38 1756.74C1122.35 1736.3 1121.34 1715.39 1123.4 1694.66C1101.73 1708.15 1085.76 1711.07 1085.76 1711.07C1086.11 1690.94 1089.53 1670.99 1095.9 1651.89C1074.91 1659.15 1060.84 1658.74 1060.84 1658.74C1068.8 1624.43 1091.29 1589.13 1106.41 1573.29C1098.99 1570.92 1091.05 1568.54 1082.41 1565.9C1081.59 1565.74 1080.82 1565.36 1079.83 1565.09C1051.62 1572.62 1032.73 1590.93 1012.32 1594.46C1017.71 1586.19 1016.66 1579.3 1020.62 1570.52C996.582 1579 990.075 1591.88 964.881 1598.12C969.083 1588.36 967.388 1580.76 971.527 1572.05C948.028 1583.54 915.917 1591.51 901.709 1594.56C885.939 1597.82 885.029 1574.39 879.869 1569.2C877.668 1566.97 864.981 1566.05 859.696 1566.86C851.863 1568.18 836.704 1567.51 825.384 1567.3C813.989 1567.06 806.156 1570.42 800.295 1574.96C791.92 1581 795.885 1597.38 799.482 1600.05C803.385 1602.87 800.975 1602.5 797.073 1601.44C790.357 1597.99 788.628 1593.44 787.545 1589.71C785.885 1583.54 785.239 1571.06 794.392 1565.91C800.156 1562.35 815.378 1555.09 830.1 1557.37C840.405 1558.96 856.752 1557.37 861.703 1556.79C866.689 1556.22 903.41 1549.6 927.653 1530.79C914.938 1532.21 912.459 1524.61 901.883 1523.36C915.514 1509.56 937.32 1506.85 948 1494.71C938.438 1493.59 929.959 1485.93 922.945 1484.84C944.34 1472.97 958.513 1466.06 973.603 1449.92C973.77 1449.65 979.402 1443.31 981.638 1440.7C974.826 1422.69 970.617 1402.82 969.159 1381.87C968.819 1376.75 968.479 1371.49 968.11 1366.09C962.888 1371.89 952.104 1377.73 934.611 1384.03C926.438 1364.16 930.34 1327.1 940.785 1298.38C925.834 1327.61 909.049 1346.63 880.397 1355.18C873.411 1333.75 877.619 1296.35 887.619 1268.27C868.633 1300.04 848.321 1316.18 814.482 1328.12C811.635 1302.18 814.343 1267.86 826.857 1236.4C800.746 1261.42 778.538 1269.69 749.275 1275.22C747.476 1244.37 754.935 1216.42 770.434 1181.97C751.719 1204.97 712.755 1220.7 683.29 1223.85C685.561 1197.09 704.311 1160.51 715.234 1139.08C687.533 1158.95 658.034 1173.19 626.125 1174.88C630.125 1144.54 643.687 1111.71 667.082 1085.2C639.583 1105.58 597.64 1116.57 566.036 1112.25C573.668 1078.96 594.181 1046.5 621.813 1029.07C605.771 1032.26 576.716 1038.87 543.252 1035.79C523.09 1103.31 512.733 1173.38 512.496 1243.85C495.781 1230.72 484.114 1227.4 472.691 1216.08C474.795 1231.74 476.864 1240.28 478.559 1259.62C481.642 1294.48 494.906 1314.42 516.773 1326.92C517.759 1336.82 519.044 1346.62 520.502 1356.46C504.329 1346.12 482.593 1339.67 453.976 1340.01C471.372 1396.74 496.295 1400.98 529.655 1406.3C530.808 1411.52 532.065 1416.68 533.28 1421.83C515.509 1417.18 494.114 1417.11 469.837 1423.83C486.621 1449.91 509.912 1465.61 547.078 1471.2C547.148 1471.43 547.245 1471.61 547.384 1471.84C524.495 1470.01 499.746 1473.4 479.941 1483.44C508.155 1507.72 535.891 1516.97 562.3 1514.16C563.654 1517.69 565.015 1521.15 566.439 1524.6C545.55 1530.13 527.106 1540.95 516.801 1551.06C538.807 1558.01 561.39 1561.7 581.8 1559.6C581.938 1560.1 582.237 1560.58 582.411 1561.09C570.473 1570.24 560.099 1585.03 553.592 1608.12C569.293 1604.21 585.397 1603.13 601.438 1598.55C604.625 1604.55 607.917 1610.39 611.341 1616.19C602.862 1632.29 599.91 1652.5 604.862 1674.95C618.354 1671.76 629.444 1666.54 638.666 1659.79C641.819 1664.47 645.007 1669.05 648.333 1673.73C644.944 1699.43 650.874 1725.27 666.131 1742.49C672.608 1735.29 678.451 1727.54 683.596 1719.33C818.683 1881.17 1021.93 1984.12 1249.17 1984.12C1566.24 1984.12 1836.49 1783.79 1940.42 1502.93L1973.88 1488.42L1971.34 1503.06L2019.62 1461.29L1957.1 1474.24L1970.25 1481.02L1944.52 1491.63C1949.03 1478.72 1953.27 1465.49 1957.1 1452.27L1993.75 1431.95L1992.46 1446.84L2036.82 1400.8L1975.75 1419.27L1989.51 1425.04L1960.14 1441.14C1964.07 1426.8 1967.64 1412.18 1970.66 1397.57L1998.57 1379.87L1997.38 1394.62L2041.41 1348.46Z" fill="black"/>
<path d="M2006.18 798.822C1992.59 803.458 1978.76 807.33 1964.74 810.419C2042.32 937.437 2086.95 1086.66 2086.95 1246.4C2086.95 1709 1711.89 2084.02 1249.4 2084.02C786.725 2084.02 411.776 1709 411.776 1246.4C411.776 1079.64 460.434 924.313 544.391 793.767C530.844 789.839 517.652 784.78 504.954 778.642C419.643 914.105 370.242 1074.52 370.242 1246.4C370.242 1731.85 763.907 2125.52 1249.4 2125.52C1734.82 2125.52 2128.46 1731.86 2128.46 1246.4C2128.45 1082.93 2083.89 929.91 2006.18 798.822ZM762.309 564.793C899.605 466.559 1067.71 408.685 1249.4 408.685C1452.2 408.685 1638.28 480.878 1783.24 600.91C1799.36 596.335 1815.55 591.994 1831.79 587.89C1676.66 450.629 1472.74 367.283 1249.4 367.283C1049.07 367.283 864.377 434.317 716.567 547.127C723.553 549.668 730.602 552.21 737.761 554.96C746.171 558.21 754.442 561.467 762.309 564.793Z" fill="black"/>
<path d="M1249.15 2415.17C603.757 2415.17 80.4913 1891.81 80.4913 1246.4C80.4913 600.938 603.757 77.7067 1249.15 77.7067C1894.62 77.7067 2417.88 600.938 2417.88 1246.4C2417.88 1891.8 1894.62 2415.17 1249.15 2415.17ZM1249.15 0.465332C561.099 0.465332 3.28467 558.349 3.28467 1246.4C3.28467 1934.49 561.099 2492.31 1249.15 2492.31C1937.28 2492.31 2495.09 1934.49 2495.09 1246.4C2495.09 558.349 1937.28 0.465332 1249.15 0.465332Z" fill="black"/>
<path d="M948.528 996.638C930.861 987.548 915.369 977.006 898.681 961.812C845.245 913.056 832.565 861.884 848.433 803.093C857.794 767.962 872.099 750.4 867.217 713.818C864.404 692.929 849.551 676.048 834.766 661.84C799.031 627.528 756.643 606.334 694.047 585.175C655.326 572.189 542.884 537.266 493.316 492.371C481.989 525.398 505.961 569.272 534.648 575.105C509.287 577.682 487.718 590.876 477.649 605.216C496.774 627.354 534.884 650.381 566.349 651.027C551.835 660.722 534.002 681.374 528.134 692.971C555.363 707.484 598.834 719.658 632.229 717.248C618.16 728.505 605.987 742.817 598.084 755.9C620.597 766.205 664.576 781.094 706.387 784.212C690.957 791.809 668.985 818.121 657.631 834.329C681.165 844.808 732.095 851.148 763.691 854.37C741.074 866.238 717.408 889.939 704.387 911.403C727.31 922.389 770.407 934.667 805.6 933.479C788.205 950.194 776.781 970.402 770.233 989.936C796.85 995.429 824.822 995.533 857.342 991.159C837.641 1016.15 829.739 1049.17 826.996 1072.67C853.377 1071.99 888.404 1065.92 913.119 1051.14C907.765 1071.31 908.917 1098.64 917.66 1117.9C928.035 1115.52 940.076 1111.22 953.194 1104.16C951.375 1066.59 949.68 1028.24 948.528 996.638ZM2022.21 552.925C1972.54 597.89 1893.16 609.924 1809.85 637.458C1747.09 658.11 1708.13 670.249 1651.94 715.04C1635.9 727.824 1620.61 746.609 1622.34 778.886C1624.23 814.725 1630.03 830.19 1631.05 880.3C1631.7 916.07 1619.35 944.896 1604.3 961.812C1588.46 979.819 1567.88 995.416 1549.37 1005.08C1548.32 1035.53 1546.92 1066.21 1545.23 1101.82C1558.28 1108.93 1574.97 1115.52 1585.37 1117.89C1593.99 1098.63 1595.21 1071.3 1589.82 1051.12C1614.57 1065.91 1649.66 1071.98 1676.01 1072.66C1673.2 1049.16 1665.33 1016.13 1645.63 991.145C1678.05 995.52 1706.09 995.415 1732.74 989.923C1726.09 970.388 1714.64 950.18 1697.27 933.465C1732.57 934.653 1775.56 922.375 1798.52 911.39C1785.5 889.925 1761.91 866.224 1739.29 854.356C1770.86 851.134 1823.21 844.995 1846.71 834.488C1835.35 818.35 1811.85 791.802 1796.59 784.205C1838.37 781.087 1882.24 766.198 1904.93 755.893C1896.96 742.803 1884.76 728.498 1870.85 717.241C1910.02 714.7 1947.59 707.477 1974.78 692.964C1968.88 681.367 1951.15 660.715 1936.64 651.02C2020.66 627.59 2022.05 585.675 2022.21 552.925Z" fill="black"/>
<path d="M1669 641.625C1549.92 558.96 1405.23 510.371 1249.15 510.371C1107.01 510.371 974.096 550.821 861.522 620.57C890.716 643.284 908.042 667.325 912.348 692.249C915.973 714.054 918.486 740.4 905.903 778.816C892.543 819.572 885.189 861.446 915.327 903.966C945.236 946.319 984.159 964.562 1016.34 970.728C1061.26 962.936 1106.52 957.21 1151.97 953.569C1157.97 933.799 1175.9 916.674 1194.02 902.709C1220.16 882.3 1214.42 864.529 1208.26 850.696C1203.34 839.842 1194.02 831.1 1180.52 824.114C1168.76 818.044 1125.59 813.468 1126.82 841.134C1119.73 831.1 1114.03 817.6 1118.2 800.343C1123.97 776.233 1163.34 770.163 1173.13 770.844C1165.54 764.434 1170.22 754.129 1187.45 749.31C1208.4 743.511 1228.2 742.629 1247.43 743.136C1286.87 744.088 1293.03 753.782 1313.07 771.518C1337.19 792.982 1369.16 800.441 1381.71 787.489C1372.65 808.038 1344 818.954 1325.59 815.801C1334.57 844.217 1337.8 868.897 1340.98 898.772C1342.48 912.334 1345.32 935.118 1348.98 953.736C1401.78 958.111 1454.95 965.367 1501.2 974.249C1520.35 968.687 1540.26 957.465 1557.99 936.847C1574.98 917.313 1590.55 892.459 1584.1 830.037C1582.27 812.44 1573.53 767.511 1574.74 746.421C1577.48 698.422 1613.08 667.159 1669 641.625Z" fill="black"/>
<path d="M1179.74 773.122C1187 778.649 1191.27 779.392 1193.68 778.816C1193.92 780.205 1196.43 781.865 1196.9 782.441C1198.47 783.795 1199.35 785.087 1199.72 786.58C1203.01 785.191 1211.82 781.594 1219.89 778.816C1227.96 775.768 1239.18 772.545 1239.18 772.545C1204.36 765.15 1199.07 775.768 1179.74 773.122ZM2224.37 916.82C2267.81 897.8 2287.44 849.273 2269.1 807.434C2250.78 765.559 2201.89 747.483 2158.49 766.539C2115.05 785.524 2095.04 833.843 2113.39 875.758C2131.67 917.563 2180.97 935.84 2224.37 916.82ZM2172.6 798.586C2206.91 783.497 2246.21 790.413 2256.14 813.135C2266.25 836.127 2244.71 869.696 2210.3 884.717C2175.81 899.841 2136.35 893.022 2126.27 870.036C2116.41 847.342 2137.91 813.739 2172.6 798.586ZM2163.68 1030L2147.13 964.493L2157.2 961.847L2161.88 980.194L2300.5 945.035L2295.75 926.723L2305.92 924.181L2331.08 1023.36L2337.83 1021.6L2341.08 1034.65L2302.77 1044.34L2299.55 1031.6L2316.91 1027.19L2304.19 977.173L2247.39 991.617L2257.26 1030.1L2273.61 1025.94L2277.07 1038.85L2229.73 1050.86L2226.2 1037.91L2243.02 1033.66L2233.26 995.179L2169.75 1011.32L2173.78 1027.36L2163.68 1030ZM225.551 854.224L219.585 874.231L309.035 900.883C335.993 908.952 350.096 923.327 353.589 946.319C355.214 958.152 354.305 970.666 350.742 983.006C339.18 1021.49 310.563 1040.14 277.702 1030.44L181.676 1001.76L176.218 1019.83L166.184 1016.81L186.086 950.284L196.023 953.236L190.767 971.103L279.466 997.582C303.542 1004.7 315.715 1003.69 325.819 993.478C330.624 988.183 334.16 981.864 336.159 974.999C344.735 946.486 332.833 924.848 303.709 916.132L215.21 889.682L209.343 909.487L199.072 906.501L215.585 851.301L225.551 854.224ZM382.88 892.98C381.113 897.019 377.837 900.208 373.753 901.867C369.668 903.527 365.096 903.525 361.013 901.862C356.955 900.134 353.745 896.873 352.081 892.789C350.418 888.704 350.436 884.128 352.131 880.057C355.693 871.578 365.527 867.543 373.901 871.071C377.986 872.799 381.223 876.072 382.905 880.176C384.587 884.28 384.578 888.882 382.88 892.98ZM413.734 822.079L407.123 833.947L368.165 812.01L374.881 800.177L390.852 809.197C404.074 803.774 411.026 798.073 417.06 787.462C424.553 774.031 421.977 759.796 410.824 753.456C400.991 747.963 390.686 750.407 366.339 763.219C340.944 776.851 337.347 778.24 327.687 780.24C318.361 782.073 308.153 780.073 298.598 774.712C274.758 761.219 268.793 734.838 283.709 708.491C288.487 700.012 293.542 694.012 301.542 687.776L295.132 684.117L301.674 672.485L338.666 693.235L332.09 704.936L317.104 696.526C306.25 702.394 300.792 706.971 296.354 715.005C290.014 726.227 293.098 739.352 303.202 745.081C311.951 749.997 320.055 748.032 345.041 734.671C357.11 728.331 364.506 724.296 367.589 722.942C373.894 719.824 381.117 718.026 389.054 717.616C398.109 717.241 406.276 719.38 414.72 724.026C439.407 737.893 446.629 765.629 432.421 790.962C425.331 803.475 417.637 811.17 406.144 817.815L413.734 822.079ZM478.871 709.609C478.871 718.699 471.649 725.921 462.594 725.921C453.538 725.921 446.421 718.699 446.421 709.609C446.421 700.623 453.538 693.401 462.594 693.401C471.649 693.401 478.871 700.623 478.871 709.609ZM862.946 390.304L757.83 444.456L753.15 435.095L769.906 426.518L704.394 299.431L687.644 308.042L682.894 298.75L773.837 251.925L770.649 245.786L782.483 239.648L800.621 274.675L788.927 280.681L780.753 264.841L734.845 288.445L761.629 340.562L796.996 322.354L789.163 307.361L801.066 301.021L823.44 344.562L811.642 350.833L803.711 335.402L768.344 353.582L796.455 408.102L844.363 383.415L835.988 367.11L847.752 361.041L862.946 390.304ZM964.09 353.749L895.799 376.464L892.445 366.527L910.383 360.596L865.321 224.863L847.453 230.794L844.162 220.856L915.605 197.26C944.764 187.496 969.756 198.885 978.707 226.016C987.318 251.682 971.652 280.404 944.055 289.494C940.055 290.883 937.375 291.494 930.868 292.41L927.07 280.779C930.327 280.473 931.577 280.036 933.646 279.459C949.687 274.133 954.84 259.522 947.819 238.599C940.562 216.426 927.952 207.711 910.959 213.405L896.82 218.12L940.799 350.562L960.736 343.916L964.09 353.749ZM1165.84 298.646L1155.5 300.375L1067.71 154.642L1052.86 157.254L1016.85 324.521L1001.62 327.132L1003.46 337.375L1054.08 328.59L1052.28 318.319L1032.72 321.743L1041.78 279.39L1101.22 269.084L1123.29 306.042L1106.07 308.958L1107.87 319.264L1167.59 308.924L1165.84 298.646ZM1045.07 263.418L1059.14 197.94L1092.98 255.106L1045.07 263.418ZM1337.31 298.75H1327.01C1322.09 298.75 1319.1 296.514 1313.3 287.799L1278.31 233.544C1301.64 226.356 1313.07 212.113 1313.14 189.704C1313.14 176.517 1309.27 165.864 1301.1 157.559C1292.22 148.677 1280.21 145.386 1258.96 145.282L1185.68 145.212V155.587L1204.5 155.691L1204.26 298.646L1185.28 298.611L1185.18 308.952L1254.82 309.118V298.743H1236.14L1236.31 236.113L1243.06 236.28L1280.15 294.632C1288.6 307.757 1291.03 309.243 1305.69 309.278L1337.19 309.382L1337.31 298.75ZM1236.58 159.253H1252.07C1269.77 159.288 1280.04 170.684 1279.98 190.649C1279.98 210.148 1268.11 223.842 1250.99 223.842L1236.38 223.676L1236.58 159.253ZM1449.61 329.062L1370.71 315.736L1372.51 305.535L1396.18 309.431L1419.34 172.649L1377.05 165.531L1373.56 185.836L1360.07 183.531L1367.12 141.927L1380.65 144.164L1379.5 151.052L1495.39 170.649L1496.68 163.83L1510.07 166.038L1503.06 207.641L1489.49 205.44L1493.05 185.163L1450.91 177.975L1427.78 314.792L1451.28 318.757L1449.61 329.062ZM1681.62 407.429L1612.75 380.707L1616.51 371.006L1636.01 378.707L1674.8 278.612L1580.46 370.874L1567.34 239.314L1529.3 337.27L1548.83 344.729L1545.04 354.527L1491.49 333.812L1495.29 324.048L1514.68 331.541L1566.47 198.246L1547.04 190.718L1550.76 180.92L1591.72 196.892L1604.85 325.743L1695.07 236.905L1740.71 254.606L1737.02 264.439L1717.55 256.911L1665.91 390.2L1685.44 397.693L1681.62 407.429ZM1802.46 486.531L1702.87 422.887L1708.54 414.102L1724.34 424.275L1801.38 303.667L1785.51 293.667L1791 284.778L1877.26 339.847L1880.92 333.979L1892.25 341.173L1871.09 374.533L1859.97 367.416L1869.6 352.395L1826.09 324.521L1794.56 373.922L1828.03 395.352L1837.08 381.11L1848.54 388.061L1822.16 429.331L1810.8 422.31L1820.06 407.595L1786.66 386.304L1753.67 437.942L1798.97 466.934L1808.9 451.504L1820.29 458.691L1802.46 486.531ZM669.367 493.413L653.159 505.211L572.529 395.457L589.452 382.908C612.917 365.749 651.367 376.228 672.964 405.658C696.123 437.095 694.596 474.899 669.367 493.413ZM701.207 384.908C674.013 347.916 623.493 340.729 585.647 368.534L523.224 414.345L529.363 422.789L544.585 411.567L629.083 526.613C633.083 528.204 637.118 529.634 641.055 531.12L682.388 500.704C701.984 486.33 712.297 470.49 716.026 449.164C719.956 426.074 714.699 403.324 701.207 384.908ZM2013.84 452.49L2006.85 460.254L2021.36 473.344L1951.21 550.349L1968.91 411.567L1932.46 378.235L1925.4 385.964L1938.66 397.998L1935.91 412.678L1848.09 508.975L1832.93 495.072L1825.81 502.767L1867.28 540.606L1874.34 532.877L1859.9 519.655L1932.96 439.497L1917.26 566.856C1932.46 562.856 1948.73 558.613 1966.12 553.731C1967.69 553.293 1968.94 552.849 1970.39 552.543L2032.82 483.948L2048.34 497.954L2055.36 490.323L2013.84 452.49ZM2180.97 633.014L2175.48 637.187L2104.04 543.703L2109.56 539.433L2101.29 528.551L2067.72 554.252L2076 565.133L2092.4 552.585L2118.45 586.73L2008.18 671.062L2002.52 663.534C1999.3 665.298 1996.14 666.888 1992.85 668.214L2033.78 721.685L2042.12 715.345L2027.68 696.492L2137.91 612.098L2163.85 646.138L2147.47 658.652L2155.72 669.437L2189.25 643.833L2180.97 633.014ZM1455.18 2337.68L1441.85 2340.6L1432.25 2297L1445.61 2294.05L1449.48 2311.98C1462.34 2318.22 1471.25 2319.65 1483.25 2317.04C1498.24 2313.75 1507.15 2302.43 1504.38 2289.81C1502 2278.93 1493.25 2272.62 1467.52 2262.96C1440.46 2253.23 1437 2251.43 1429.1 2245.49C1421.47 2239.8 1416.18 2230.88 1413.84 2220.17C1408.01 2193.48 1423.82 2171.44 1453.45 2164.93C1462.84 2162.86 1470.74 2162.76 1480.81 2164.52L1479.18 2157.23L1492.27 2154.42L1501.36 2195.92L1488.27 2198.81L1484.58 2182.16C1472.91 2177.72 1465.93 2176.74 1456.95 2178.67C1444.36 2181.48 1436.54 2192.64 1439.01 2203.97C1441.21 2213.63 1448.1 2218.48 1474.61 2228.31C1487.43 2232.99 1495.36 2235.8 1498.45 2237.16C1505.3 2240.08 1511.5 2244.34 1516.66 2249.71C1523 2256.28 1526.9 2263.74 1529 2273.28C1535 2300.91 1519.13 2324.68 1490.68 2330.92C1476.68 2333.94 1465.83 2333.26 1453.31 2329.16L1455.18 2337.68ZM1707.55 2258.28L1597.55 2301.5L1593.76 2291.78L1611.29 2284.82L1559.03 2151.74L1541.44 2158.72L1537.71 2149.02L1632.96 2111.56L1630.35 2105.04L1642.82 2100.16L1657.27 2136.92L1644.99 2141.74L1638.55 2125.12L1590.26 2144.01L1611.8 2198.56L1648.76 2183.99L1642.65 2168.32L1655.16 2163.17L1672.9 2208.67L1660.55 2213.92L1654.08 2197.68L1617.19 2212.12L1639.6 2269.23L1689.68 2249.53L1683 2232.51L1695.55 2227.62L1707.55 2258.28ZM1873.02 2157.54C1859.01 2175.06 1849.18 2184.26 1833.04 2193.99C1788.32 2221.11 1738.1 2210.36 1712.5 2168.15C1687.11 2126.31 1700.13 2075.82 1742.78 2049.88C1756.48 2041.5 1767.13 2037.6 1782.76 2035.4L1777.34 2026.55L1789.04 2019.43L1812.03 2057.48L1800.4 2064.57L1792.13 2050.94C1774.84 2049.89 1766.59 2051.66 1755.44 2058.4C1725.94 2076.34 1720.25 2113.43 1741.68 2148.7C1762.53 2183.04 1801.39 2196.1 1830.72 2178.33C1841.29 2171.82 1847.57 2164.9 1853.81 2152.67L1843.97 2136.6L1855.88 2129.41L1873.02 2157.54ZM1947.76 1901.33L1932.29 1915.36L1995.19 1984.33C2014.14 2005.08 2018.82 2024.58 2009.94 2046.08C2005.08 2057.49 1997.79 2067.71 1988.58 2076.02C1958.88 2103.25 1924.73 2104.37 1901.61 2079.21L1834 2005.09L1820.06 2017.73L1813.11 2010.07L1864.38 1963.24L1871.44 1970.94L1857.67 1983.41L1920.13 2051.91C1936.98 2070.38 1948.01 2075.81 1961.84 2072.29C1968.72 2070.28 1975.03 2066.69 1980.28 2061.81C2002.32 2041.8 2003.24 2016.98 1982.75 1994.6L1920.53 1926.42L1905.34 1940.32L1898.19 1932.38L1940.6 1893.59L1947.76 1901.33ZM2226.54 1756.51L2193.49 1817.61L2184.26 1812.63L2193.28 1795.98L2067.52 1727.93L2058.43 1744.54L2049.48 1739.52L2082.47 1678.42L2091.63 1683.44L2082.67 1699.71L2208.53 1767.84L2217.35 1751.52L2226.54 1756.51ZM2290.02 1607.89L2261.8 1682.73L2252.11 1679L2260.55 1656.48L2130.69 1607.59L2115.46 1647.73L2134.86 1654.99L2129.97 1667.84L2090.5 1652.92L2095.22 1640.17L2101.86 1642.58L2143.3 1532.51L2136.79 1530.08L2141.61 1517.22L2181.1 1532.14L2176.29 1544.96L2157 1537.63L2141.95 1577.58L2271.85 1626.51L2280.22 1604.23L2290.02 1607.89ZM2333.96 1425.23L2320.64 1493.45L2310.33 1491.45L2313.96 1473.21L2246.78 1460.02L2164.15 1493.99L2161.17 1509.39L2150.93 1507.25L2164.29 1439.07L2174.49 1441.13L2170.93 1459.18L2231.02 1435.1L2184.09 1392.14L2179.99 1412.82L2169.81 1410.86L2180.9 1354.03L2191.04 1356.06L2187.69 1373.62L2246.51 1427.3L2320.09 1441.75L2323.72 1423.27L2333.96 1425.23ZM1994.71 1844.09L2004 1831.51C2014.48 1817.27 2029.81 1816.02 2045.71 1827.85C2061.41 1839.58 2065.52 1857.01 2055.24 1870.78L2046.56 1882.51L1994.71 1844.09ZM2166.87 1845.92L2160.73 1854.17C2157.74 1858.13 2154.19 1859.29 2143.74 1858.61L2079.25 1854.61C2087.46 1831.65 2082.64 1813.82 2064.77 1800.49C2054.16 1792.7 2043.21 1789.47 2031.75 1791.17C2019.2 1793.04 2009.61 1800.66 1996.82 1817.89L1953.22 1876.69L1961.49 1882.86L1972.85 1867.74L2087.63 1952.95L2076.41 1968.07L2084.75 1974.31L2126.22 1918.46L2117.81 1912.29L2106.72 1927.31L2056.53 1889.87L2060.46 1884.55L2129.49 1889.47C2145.06 1890.51 2147.77 1889.36 2156.55 1877.63L2175.3 1852.27L2166.87 1845.92ZM199.44 1578.8L182.822 1511.22L192.996 1508.78L197.509 1526.89L260.848 1511.39L241.654 1433.07L178.281 1448.5L182.725 1466.6L172.656 1469.01L156.142 1401.57L166.177 1399.09L170.753 1417.43L309.674 1383.49L305.229 1365.12L315.271 1362.71L331.715 1430.18L321.576 1432.62L317.167 1414.59L255.967 1429.5L275.188 1507.9L336.43 1492.91L331.881 1474.81L342.159 1472.4L358.603 1539.88L348.499 1542.38L343.992 1524.11L205.072 1557.98L209.648 1576.39L199.44 1578.8ZM347.583 1734.07C390.818 1714.43 409.734 1665.74 390.818 1624.14C371.797 1582.53 322.666 1565.07 279.535 1584.77C236.474 1604.47 217.044 1653.03 235.995 1694.63C254.876 1736.23 304.452 1753.76 347.583 1734.07ZM294.077 1616.58C328.222 1601.01 367.589 1607.32 377.86 1629.97C388.269 1652.76 367.179 1686.66 333.104 1702.26C298.688 1717.86 259.216 1711.55 248.876 1688.77C238.571 1666.08 259.661 1632.27 294.077 1616.58ZM410.651 1969.96L367.388 1910.25L375.762 1904.15L388.033 1921.03L474.837 1858.03L345.548 1884.31L405.803 1766.75L320.764 1828.36L333.104 1845.28L324.625 1851.42L290.889 1805.03L299.334 1798.89L311.639 1815.74L427.303 1731.66L415.06 1714.84L423.539 1708.77L449.275 1744.23L390.512 1859.76L514.412 1833.86L543.363 1873.66L534.856 1879.76L522.613 1862.91L406.852 1946.94L419.164 1963.82L410.651 1969.96ZM539.842 2096.94L452.865 2016.85L459.99 2009.25L473.892 2021.91L570.8 1916.83L556.932 1903.97L563.946 1896.38L639.291 1965.69L643.833 1960.53L653.874 1969.65L627.083 1998.64L617.354 1989.76L629.423 1976.71L591.48 1941.61L551.772 1984.67L580.966 2011.56L592.466 1999.15L602.431 2008.1L569.272 2044.08L559.335 2035.2L571.001 2022.34L541.842 1995.49L500.239 2040.52L539.877 2077.07L552.321 2063.58L562.154 2072.63L539.842 2096.94ZM687.644 2198.29L590.362 2132.85L596.264 2124.24L611.924 2134.82L691.714 2016.07L676.082 2005.59L681.915 1996.91L739.588 2035.67L733.727 2044.39L718.366 2033.98L640.854 2149.16L684.728 2178.76L694.964 2163.47L706.088 2170.99L687.644 2198.29ZM866.606 2274.35L857.113 2270.04L866.807 2100.16L853.043 2093.89L729.012 2211.76L715.005 2205.38L710.699 2214.84L757.428 2236.13L761.837 2226.67L743.664 2218.43L775.094 2188.49L829.954 2213.44L827.273 2256.47L811.537 2249.32L807.128 2258.74L862.259 2283.83L866.606 2274.35ZM786.691 2177.17L835.28 2131.08L831.009 2197.34L786.691 2177.17ZM1038.39 2333.01L1021.5 2328.94L965.791 2190.42L940.562 2295.95L959.618 2300.56L957.208 2310.66L902.653 2297.68L905.056 2287.44L925.063 2292.25L955.479 2165.5L950.632 2151.36L933.236 2147.23L935.646 2137.02L983.791 2148.55L1035.3 2278.59L1059.57 2177.44L1040.48 2172.83L1042.89 2162.69L1097.55 2175.74L1095.01 2185.92L1074.66 2181.03L1038.39 2333.01ZM1193.41 2345.21C1217.72 2346.09 1235.56 2340.09 1251.73 2325.75C1269.19 2309.91 1279.19 2288.99 1280.04 2266.14C1281.67 2220.23 1246.47 2183.24 1199.54 2181.53L1122.13 2178.65L1121.83 2189.17L1140.68 2189.78L1135.5 2332.66L1116.64 2332.02L1116.3 2342.46L1193.41 2345.21ZM1174.45 2200.06L1195.44 2200.9C1224.53 2201.99 1248.2 2234.13 1246.98 2270.55C1245.49 2309.5 1220.8 2338.16 1189.67 2337.07L1169.5 2336.33L1174.45 2200.06Z" fill="black"/>
<path d="M1249.12 1616.64H1241.25C1237.29 1591.85 1219.28 1576.56 1193.07 1568.52C1173.13 1562.31 1144.25 1552.92 1082.39 1534C1010.68 1511.96 974.09 1454.25 969.138 1381.82C962.187 1279.39 951.979 1099.41 948.153 984.832C1029.09 964.999 1148.54 949.396 1249.12 949.396C1349.72 949.396 1469.11 964.992 1550.08 984.832C1546.42 1099.41 1535.98 1279.39 1529.13 1381.82C1524.14 1454.25 1487.59 1511.96 1415.87 1534C1353.99 1552.92 1325.14 1562.31 1305.19 1568.52C1278.92 1576.56 1260.91 1591.85 1257.04 1616.64H1249.12Z" fill="white"/>
<path d="M1228.64 1355.14L1213.96 1347.78L1204.5 1323.06L1183.04 1313.67L1158.83 1292.07L1144.45 1307.9L1122.99 1312.96L1111.56 1331.03L1094.3 1349.38L1070.8 1361.89L1054.56 1389.39L1045.34 1401.57L1029.5 1413.94L1020.72 1404.65L1011.32 1413.6L999.596 1435.34C993.422 1419.09 989.693 1406.52 987.832 1380.54C984.374 1332.39 980.881 1271.96 977.492 1210.08C1056.91 1192.96 1157.98 1181.63 1240.04 1180.86V1368.4C1236.27 1366.13 1232.51 1364.33 1228.64 1355.14Z" fill="black"/>
<path d="M1240.03 1445.47H1003.87C1007.27 1452.67 1011.31 1459.54 1015.94 1466.02C1032.92 1489.9 1057.14 1507.53 1087.85 1516.95C1117.12 1525.9 1146.34 1535.01 1175.5 1544.28L1198.63 1551.51C1217.51 1557.34 1230.74 1565.88 1240.03 1575.24L1240.03 1445.47Z" fill="black"/>
<path d="M1489.43 1354.19C1495.9 1349.04 1503.33 1343.04 1513.13 1339.48C1514.51 1317.4 1515.94 1293.84 1517.43 1269.42C1514.82 1271.19 1512.11 1273.42 1508.75 1276.07C1497.49 1285.19 1483.43 1296.65 1458.63 1296.65C1435.44 1296.65 1420.39 1287.36 1408.32 1279.9C1398.52 1273.83 1390.61 1269.08 1379.05 1269.08C1366.3 1269.08 1355.35 1275.6 1343.69 1282.61C1331.1 1290.07 1316.9 1298.58 1299.51 1298.58C1281.67 1298.58 1268.78 1293.09 1258.24 1287.36V1353.65C1260.62 1355 1262.96 1356.43 1265.23 1357.82C1275.81 1364.34 1284.96 1369.96 1299.51 1369.96C1308.5 1369.96 1317.42 1364.61 1327.93 1358.26C1341.94 1349.92 1357.87 1340.43 1379.06 1340.43C1399.2 1340.43 1412.52 1348.53 1424.43 1355.79C1434.94 1362.37 1444.13 1367.89 1458.64 1367.89C1472.5 1367.89 1480.06 1361.89 1489.43 1354.19ZM1299.51 1505.32C1281.67 1505.32 1268.78 1499.9 1258.24 1494.03V1575.2C1267.5 1565.88 1280.69 1557.33 1299.68 1551.5L1322.7 1544.28C1342.1 1538.1 1368.57 1529.73 1410.39 1516.95C1422.56 1513.18 1433.75 1508.2 1443.88 1501.93C1428.69 1499.15 1417.64 1492.36 1408.32 1486.63C1398.52 1480.56 1390.61 1475.78 1379.05 1475.78C1366.3 1475.78 1355.35 1482.39 1343.69 1489.34C1331.11 1496.78 1316.9 1505.32 1299.51 1505.32Z" fill="black"/>
<path d="M1489.43 1252.24C1497.15 1246.03 1506.52 1238.57 1519.37 1235.62C1519.88 1227.17 1520.36 1218.63 1520.83 1210.08C1441.41 1192.96 1340.44 1181.63 1258.24 1180.86V1251.69C1260.62 1253.11 1262.96 1254.44 1265.23 1255.89C1275.81 1262.33 1284.96 1268.06 1299.51 1268.06C1308.5 1268.06 1317.42 1262.57 1327.93 1256.33C1341.94 1247.85 1357.87 1238.4 1379.06 1238.4C1399.2 1238.4 1412.52 1246.7 1424.43 1253.83C1434.94 1260.37 1444.13 1265.96 1458.64 1265.96C1472.5 1265.96 1480.06 1259.93 1489.43 1252.24ZM1258.24 1389.32V1458.39C1260.62 1459.71 1262.96 1461.2 1265.23 1462.56C1275.81 1469.08 1284.96 1474.74 1299.51 1474.74C1308.5 1474.74 1317.42 1469.31 1327.93 1463.07C1341.94 1454.7 1357.87 1445.17 1379.06 1445.17C1399.2 1445.17 1412.52 1453.34 1424.43 1460.53C1434.94 1467.11 1444.13 1472.7 1458.64 1472.7C1469.93 1472.7 1476.99 1468.67 1484.34 1463.11C1499.5 1440.66 1508.31 1412.86 1510.45 1380.54C1510.49 1379.11 1510.62 1377.79 1510.72 1376.5C1510.08 1376.94 1509.43 1377.52 1508.76 1378.03C1497.5 1387.15 1483.43 1398.48 1458.64 1398.48C1435.45 1398.48 1420.39 1389.32 1408.32 1381.93C1398.52 1375.75 1390.62 1370.98 1379.06 1370.98C1366.31 1370.98 1355.36 1377.52 1343.69 1384.61C1331.11 1392.07 1316.91 1400.55 1299.51 1400.55C1281.67 1400.55 1268.78 1395.12 1258.24 1389.32Z" fill="black"/>
<path d="M976.437 1192.02C972.673 1123.04 969.381 1053.57 967.319 998.811C1051.1 979.756 1161.98 967.208 1249.13 967.208C1336.27 967.208 1447.32 979.756 1530.9 998.811C1529 1053.57 1525.64 1123.05 1521.81 1192.02C1442.94 1175.37 1338.64 1162.93 1249.12 1162.93C1159.67 1162.92 1055.34 1175.36 976.437 1192.02Z" fill="black"/>
<path d="M1031.44 1044.34L1034.48 1029.5L1020.72 1023.22L1035.74 1021.63L1037.26 1006.57L1043.44 1020.44L1058.09 1017.39L1046.96 1027.53L1054.56 1040.72L1041.47 1033.02L1031.44 1044.34ZM1123.32 1032.17L1110.61 1023.9L1100 1034.82L1103.79 1020.1L1090.4 1013.26L1105.32 1012.27L1107.62 997.283L1113.08 1011.39L1127.97 1008.98L1116.37 1018.68L1123.32 1032.17ZM1192.26 1026.82L1180.02 1017.94L1168.93 1028.24L1173.47 1013.76L1160.38 1006.23L1175.37 1006.07L1178.46 991.145L1183.2 1005.59L1198.13 1003.93L1185.99 1012.92L1192.26 1026.82ZM1261.16 1025.32L1249.46 1015.8L1237.83 1025.32L1243.15 1011.15L1230.47 1002.78L1245.56 1003.59L1249.46 988.909L1253.29 1003.59L1268.35 1002.78L1255.83 1011.15L1261.16 1025.32ZM1457.41 1033.19L1444.39 1040.82L1451.89 1027.63L1440.73 1017.49L1455.45 1020.61L1461.65 1006.61L1463.11 1021.73L1478.17 1023.36L1464.34 1029.66L1467.52 1044.48L1457.41 1033.19ZM1382.45 1018.68L1370.75 1009.01L1385.57 1011.49L1391.16 997.283L1393.4 1012.27L1408.45 1013.19L1394.99 1020.1L1398.86 1034.82L1388.14 1023.9L1375.5 1032.24L1382.45 1018.68ZM1312.9 1012.98L1300.86 1003.93L1315.82 1005.66L1320.53 991.179L1323.62 1006.17L1338.64 1006.23L1325.48 1013.83L1330.06 1028.35L1318.97 1017.94L1306.73 1026.82L1312.9 1012.98ZM1041.47 1155.94L1044.55 1141.12L1030.92 1134.75L1045.84 1133.32L1047.61 1118.23L1053.64 1132.17L1068.29 1129.22L1057.14 1139.25L1064.46 1152.45L1051.47 1144.68L1041.47 1155.94ZM1130.85 1144.68L1118.2 1136.3L1107.52 1147.05L1111.39 1132.44L1098.06 1125.42L1113.05 1124.61L1115.42 1109.62L1120.88 1123.89L1135.7 1121.52L1123.97 1131.09L1130.85 1144.68ZM1197.14 1139.86L1184.83 1130.91L1173.78 1141.22L1178.36 1126.68L1165.34 1119.11L1180.36 1119.08L1183.38 1104.16L1188.05 1118.57L1203.11 1116.88L1190.93 1125.96L1197.14 1139.86ZM1263.46 1138.64L1251.73 1129.05L1240.07 1138.64L1245.49 1124.34L1232.85 1116.03L1247.8 1116.84L1251.73 1102.16L1255.6 1116.84L1270.62 1116.03L1258.03 1124.34L1263.46 1138.64ZM1451.95 1145.53L1438.93 1153.26L1446.46 1140.04L1435.27 1129.9L1449.95 1132.84L1456.06 1119.08L1457.62 1134.1L1472.64 1135.63L1458.9 1141.93L1462.09 1156.82L1451.95 1145.53ZM1379.56 1131.63L1367.87 1122.03L1382.75 1124.34L1388.14 1110.2L1390.45 1125.25L1405.54 1126.03L1392.07 1132.95L1395.87 1147.63L1385.3 1136.85L1372.62 1145.19L1379.56 1131.63ZM1312.49 1126.2L1300.53 1117.18L1315.48 1118.84L1320.19 1104.46L1323.24 1119.28L1338.37 1119.59L1325.14 1126.95L1329.65 1141.46L1318.6 1131.18L1306.39 1140.07L1312.49 1126.2ZM1074.32 1090.09L1077.85 1075.3L1064.32 1068.62L1079.38 1067.5L1081.38 1052.41L1087.01 1066.46L1101.76 1063.88L1090.4 1073.68L1097.55 1087.1L1084.73 1079.1L1074.32 1090.09ZM1008.41 1100.57L1011.46 1085.61L997.596 1079.48L1012.51 1077.78L1014.01 1062.69L1020.24 1076.46L1034.99 1073.44L1023.84 1083.58L1031.44 1096.8L1018.38 1089.14L1008.41 1100.57ZM1163.54 1080.8L1151.16 1072.08L1140.18 1082.7L1144.52 1068.01L1131.19 1060.79L1146.31 1060.42L1148.93 1045.4L1154.01 1059.74L1168.93 1057.71L1157.03 1067.03L1163.54 1080.8ZM1229.59 1077.61L1217.58 1068.32L1206.23 1078.32L1211.17 1063.98L1198.29 1056.05L1213.24 1056.35L1216.74 1041.57L1221.08 1056.05L1236.06 1054.93L1223.69 1063.64L1229.59 1077.61ZM1295.67 1078.49L1284.25 1068.46L1272.31 1077.64L1278.15 1063.64L1265.87 1054.93L1280.83 1056.12L1285.17 1041.6L1288.59 1056.45L1303.64 1056.12L1290.76 1064.05L1295.67 1078.49ZM1483.63 1089.61L1470.34 1097L1478.17 1084.09L1467.31 1073.64L1481.9 1077.03L1488.27 1063.2L1489.49 1078.32L1504.48 1080.29L1490.54 1086.19L1493.39 1101.21L1483.63 1089.61ZM1411.54 1074.12L1399.98 1064.32L1414.79 1066.93L1420.63 1052.89L1422.56 1068.01L1437.51 1069.14L1424.05 1075.71L1427.54 1090.5L1417.23 1079.48L1404.32 1087.65L1411.54 1074.12ZM1344.84 1067.34L1332.97 1057.98L1347.93 1059.98L1352.94 1045.71L1355.62 1060.59L1370.71 1061.23L1357.42 1068.32L1361.56 1082.97L1350.71 1072.46L1338.37 1081.03L1344.84 1067.34ZM578.057 1415.91C600.264 1384.34 642.041 1377.52 623.187 1292.76C575.814 1313.47 553.745 1372.54 578.057 1415.91ZM574.966 1203.99C559.772 1210.26 538.314 1231.32 528.648 1259.09C544.585 1277.5 551.335 1300.12 550.62 1320.67C579.612 1294.11 589.681 1248.3 574.966 1203.99ZM603.077 1497.22C605.007 1497.49 604.535 1497.29 602.396 1496.61C580.119 1484.2 564.383 1479.89 533.801 1484.02C562.488 1486.13 582.598 1490.13 603.077 1497.22ZM696.151 1600.16C695.88 1600.8 695.575 1601.48 695.408 1602.16C694.596 1636.44 716.567 1674.62 677.27 1728.77C675.374 1735.25 672.791 1749.25 693.005 1725.24C732.873 1677.91 698.971 1639.29 696.151 1600.16ZM616.778 1653.8C620.07 1632.44 634.243 1606.98 655.062 1589.82C669.541 1577.81 677.749 1573.41 665.61 1586.16C647.194 1605.38 625.799 1636.61 616.778 1653.8ZM662.277 1712.02C654.312 1691.95 661.263 1659.71 669.874 1638.55C675.909 1624.03 690.762 1601.93 695.478 1599.86C678.999 1625.22 661.402 1692.56 662.277 1712.02ZM595.514 1431.95C595.166 1430.14 594.463 1428.42 593.445 1426.89C592.428 1425.36 591.116 1424.04 589.587 1423.02C588.057 1422 586.34 1421.29 584.535 1420.94C582.73 1420.58 580.872 1420.59 579.07 1420.96C577.262 1421.31 575.542 1422.02 574.009 1423.04C572.476 1424.06 571.161 1425.38 570.139 1426.91C569.117 1428.44 568.41 1430.16 568.057 1431.97C567.704 1433.78 567.714 1435.64 568.085 1437.44C568.823 1441.08 570.967 1444.28 574.052 1446.35C577.138 1448.42 580.914 1449.19 584.563 1448.5C586.375 1448.14 588.098 1447.43 589.632 1446.4C591.166 1445.37 592.48 1444.05 593.499 1442.51C594.518 1440.97 595.221 1439.25 595.567 1437.43C595.913 1435.62 595.895 1433.75 595.514 1431.95ZM717.72 1451.13C718.227 1430.18 715.005 1408.55 717.415 1384.07C675.672 1414.59 661.402 1468.06 678.728 1505.39C676.929 1505.12 675.166 1505.02 673.304 1505.49C669.523 1506.26 666.202 1508.5 664.071 1511.72C661.941 1514.94 661.176 1518.87 661.944 1522.65C663.506 1530.42 671.2 1535.54 679.138 1533.95C681.006 1533.57 682.783 1532.83 684.366 1531.77C685.948 1530.71 687.306 1529.34 688.361 1527.76C689.417 1526.17 690.148 1524.39 690.515 1522.52C690.882 1520.65 690.876 1518.72 690.499 1516.86C689.582 1512.86 687.311 1509.53 684.124 1507.53C677.207 1474.47 682.901 1433.13 700.227 1415.74C694.873 1436.43 685.006 1479.79 691.346 1519.76C698.193 1511.97 703.318 1504.47 707.116 1496.95C707.929 1503.32 709.387 1509.8 712.033 1516.65C712.984 1484.81 723.595 1453.34 756.657 1431.37C732.449 1462.06 718.609 1497.9 715.727 1524.92C733.289 1502.58 773.233 1495.93 776.115 1408.45C755.865 1414.59 731.623 1429.3 717.72 1451.13ZM745.317 1541.13C743.588 1532.79 735.685 1527.46 727.449 1529.15C725.479 1529.54 723.606 1530.32 721.938 1531.44C720.27 1532.56 718.84 1534 717.73 1535.67C716.62 1537.34 715.853 1539.22 715.472 1541.19C715.091 1543.17 715.105 1545.19 715.512 1547.16C717.172 1555.37 725.276 1560.59 733.484 1558.92C741.727 1557.2 747.018 1549.3 745.317 1541.13ZM740.032 1587.17C739.219 1583.21 736.876 1579.73 733.512 1577.48C730.148 1575.23 726.033 1574.4 722.06 1575.17C718.122 1575.98 714.665 1578.32 712.448 1581.67C710.23 1585.03 709.432 1589.13 710.227 1593.07C711.852 1601.34 719.859 1606.63 728.199 1605.04C732.134 1604.23 735.589 1601.9 737.807 1598.55C740.025 1595.2 740.825 1591.11 740.032 1587.17Z" fill="white"/>
<path d="M652.006 1362.71C621.083 1388.51 612.438 1420.89 615.792 1449.37C614.587 1449.22 613.366 1449.24 612.167 1449.44C610.64 1449.74 609.187 1450.33 607.891 1451.19C606.596 1452.05 605.482 1453.16 604.616 1454.45C603.749 1455.75 603.146 1457.2 602.842 1458.72C602.537 1460.25 602.537 1461.82 602.841 1463.34C604.16 1469.72 610.403 1473.92 616.709 1472.56C618.202 1472.29 619.486 1471.68 620.639 1471C623.404 1478.9 627.188 1486.4 631.896 1493.31C629.065 1483.2 627.124 1472.85 626.097 1462.39C626.167 1461.17 626.264 1459.88 625.958 1458.73C625.958 1458.39 625.792 1458.19 625.722 1457.92C624.097 1433.75 627.896 1408.68 641.25 1390.61C637.111 1417.09 630.875 1468.06 636.805 1499.8C645.868 1466.02 694.526 1451.13 652.006 1362.71ZM775.566 1561.67C774.894 1558.61 773.047 1555.93 770.424 1554.22C767.8 1552.5 764.608 1551.88 761.532 1552.49C758.476 1553.12 755.792 1554.93 754.054 1557.52C752.317 1560.12 751.666 1563.29 752.24 1566.35C753.698 1572.8 759.837 1576.93 766.247 1575.65C769.319 1575 772.016 1573.17 773.758 1570.56C775.5 1567.95 776.149 1564.76 775.566 1561.67ZM710.158 1559.51C709.734 1557.4 708.694 1555.46 707.169 1553.94C705.644 1552.42 703.703 1551.38 701.59 1550.97C699.478 1550.55 697.289 1550.77 695.301 1551.59C693.313 1552.42 691.614 1553.82 690.42 1555.61C689.227 1557.4 688.591 1559.51 688.593 1561.66C688.596 1563.82 689.237 1565.92 690.435 1567.71C691.633 1569.5 693.335 1570.89 695.325 1571.71C697.316 1572.53 699.505 1572.75 701.616 1572.33C707.484 1571.17 711.276 1565.34 710.158 1559.51ZM561.099 1409.57C560.689 1407.27 559.49 1405.18 557.707 1403.67C555.925 1402.16 553.671 1401.32 551.335 1401.3C536.009 1380.55 513.968 1358.37 477.246 1354.64C497.385 1364.06 527.634 1382.68 548.585 1401.57C546.152 1402.21 544.046 1403.74 542.679 1405.85C541.313 1407.97 540.784 1410.51 541.196 1413C541.686 1415.64 543.193 1417.98 545.393 1419.52C547.593 1421.06 550.31 1421.68 552.96 1421.24C555.578 1420.75 557.899 1419.25 559.421 1417.07C560.944 1414.89 561.547 1412.19 561.099 1409.57ZM561.578 1339.99C561.244 1338.35 560.589 1336.79 559.649 1335.41C558.71 1334.02 557.506 1332.84 556.107 1331.92C554.707 1331 553.139 1330.37 551.494 1330.06C549.849 1329.75 548.16 1329.78 546.523 1330.12C546.286 1330.16 545.981 1330.19 545.675 1330.36C537.301 1297.78 529.301 1272.48 492.406 1247.12C510.815 1270.85 532.21 1305.34 544.217 1330.8C541.485 1331.93 539.229 1333.97 537.831 1336.57C536.433 1339.17 535.981 1342.18 536.551 1345.08C536.881 1346.73 537.533 1348.29 538.469 1349.68C539.405 1351.08 540.607 1352.27 542.005 1353.2C543.403 1354.13 544.971 1354.78 546.618 1355.1C548.266 1355.42 549.961 1355.41 551.606 1355.08C554.916 1354.38 557.817 1352.4 559.683 1349.58C561.549 1346.76 562.23 1343.31 561.578 1339.99ZM599.008 1467.79C598.549 1465.16 597.068 1462.82 594.888 1461.28C592.707 1459.74 590.006 1459.13 587.376 1459.58C586.096 1459.79 584.87 1460.25 583.77 1460.94C582.669 1461.62 581.716 1462.52 580.966 1463.58C548.349 1434.69 525.863 1434.52 508.641 1433.74C519.016 1437.43 556.349 1448.18 580.119 1465C579.104 1466.89 578.757 1469.07 579.133 1471.18C579.569 1473.83 581.038 1476.2 583.219 1477.77C585.399 1479.34 588.112 1479.98 590.765 1479.55C592.08 1479.32 593.338 1478.84 594.465 1478.12C595.593 1477.41 596.567 1476.48 597.333 1475.38C598.1 1474.29 598.642 1473.06 598.929 1471.75C599.216 1470.45 599.243 1469.1 599.008 1467.79ZM626.437 1508.65C624.91 1500.78 617.181 1495.7 609.313 1497.22C605.54 1498 602.231 1500.25 600.104 1503.46C597.976 1506.67 597.203 1510.6 597.952 1514.38C598.323 1516.25 599.064 1518.04 600.13 1519.62C601.197 1521.21 602.568 1522.57 604.164 1523.63C605.761 1524.68 607.55 1525.41 609.429 1525.76C611.309 1526.12 613.24 1526.1 615.111 1525.7C622.979 1524.17 628 1516.38 626.437 1508.65ZM647.597 1533.67C647.383 1532.36 646.914 1531.12 646.216 1530C645.518 1528.88 644.606 1527.91 643.531 1527.14C642.456 1526.37 641.241 1525.83 639.954 1525.53C638.667 1525.24 637.335 1525.2 636.034 1525.42C632.507 1525.97 629.729 1528.2 628.472 1531.19C600.021 1527.46 569.098 1531.39 543.057 1545.87C572.216 1539.12 602.737 1532.85 627.694 1532.78H627.861C627.486 1534.13 627.424 1535.56 627.556 1537.01C628.639 1542.44 633.861 1546.27 639.319 1545.29C640.632 1545.08 641.89 1544.61 643.02 1543.92C644.151 1543.22 645.13 1542.3 645.901 1541.22C646.672 1540.13 647.219 1538.91 647.51 1537.61C647.802 1536.32 647.831 1534.98 647.597 1533.67ZM676.86 1550.69C676.525 1548.99 675.856 1547.37 674.891 1545.94C673.926 1544.5 672.685 1543.27 671.24 1542.32C669.795 1541.36 668.175 1540.71 666.474 1540.39C664.773 1540.06 663.026 1540.08 661.333 1540.44C654.312 1541.74 649.631 1548.69 651.027 1555.77C650.756 1555.77 650.555 1555.67 650.111 1555.6C629.09 1554.89 594.028 1560.42 572.529 1585.92C594.57 1572.93 629.667 1559.57 650.756 1556.69C650.895 1556.76 651.131 1556.69 651.333 1556.69C652.2 1559.9 654.253 1562.67 657.077 1564.43C659.901 1566.19 663.287 1566.82 666.555 1566.18C669.962 1565.47 672.952 1563.44 674.88 1560.54C676.808 1557.65 677.519 1554.11 676.86 1550.69ZM861.217 1616.81C921.236 1662.01 955.312 1724.74 963.992 1775.2C956.465 1769.67 942.292 1763.94 933.611 1765.56C925.813 1712.3 898.043 1669.2 854.439 1634.24C856.231 1626.17 858.773 1620.61 861.217 1616.81ZM815.371 1663.71C829.613 1669.37 836.766 1667.27 840.426 1662.18C848.023 1651.46 844.356 1637.09 839.544 1634.64C840.627 1639.02 840.426 1643.6 839.405 1648.82C838.627 1653.02 836.454 1659.97 828.586 1659.06C824.384 1658.55 816.614 1656.48 812.037 1653.4C808.781 1651.13 808.781 1645.46 810.649 1640.62C811.531 1638.35 812.579 1634.89 815.496 1632.48C810.649 1633.63 807.732 1636.14 803.899 1639.12C800.1 1642.07 794.475 1642.65 791.218 1639.19C787.219 1634.71 784.677 1631.32 783.316 1628.37C780.024 1620.68 789.962 1614.92 795.76 1611.89C785.726 1612 783.996 1615.8 776.024 1614.44C767.816 1613.08 765.754 1600.06 765.782 1595.76C765.782 1592.6 769.684 1589.55 774.323 1588.4C778.83 1587.41 784.226 1587.82 787.177 1588.09C786.67 1585.77 786.441 1583.4 786.496 1581.03C778.392 1579.17 762.559 1581.88 759.573 1586.36C755.81 1592.12 756.796 1595.08 759.81 1605.25C762.796 1615.05 765.101 1618.54 771.441 1619.49C773.17 1619.73 776.594 1620.17 780.392 1618.75C778.392 1620.01 777.066 1621.12 776.087 1623.7C774.969 1626.28 773.205 1630.65 781.003 1639.98C787.684 1648.08 794.295 1651.16 799.788 1648.15C802.94 1646.39 804.128 1644.46 805.586 1642.93C804.611 1645.13 803.851 1647.43 803.315 1649.78C801.843 1657.7 807.808 1660.82 815.371 1663.71Z" fill="white"/>
<path d="M804.927 1601.35C808.961 1596.23 818.864 1595.58 824.461 1599.14C820.662 1606.33 820.288 1618.27 822.392 1624.14C808.288 1621.96 805.746 1608.44 804.927 1601.35ZM827.072 1600.53C835.377 1599.92 838.502 1595.76 839.954 1591.69C841.447 1587.76 845.884 1585.28 846.023 1591.35C846.058 1597.45 846.092 1600.19 842.669 1601.83C839.176 1603.58 833.002 1604.06 827.072 1600.53ZM831.308 1613.66C830.539 1618.25 828.768 1622.61 826.121 1626.44C823.982 1629.49 820.968 1631.29 818.76 1633.29C822.593 1636.14 828.016 1637.8 832.558 1637.6C837.002 1637.32 837.273 1636.75 837.002 1634.98C835.989 1627.39 833.002 1616.64 831.308 1613.66ZM1667.44 1593.99C1671.31 1601.14 1671.58 1613.22 1669.48 1618.98C1683.72 1616.75 1686.16 1603.28 1687.04 1596.24C1682.9 1591.08 1673.07 1590.5 1667.44 1593.99ZM1664.86 1595.42C1656.59 1594.77 1653.46 1590.67 1651.98 1586.7C1650.45 1582.67 1646.01 1580.12 1645.98 1586.29C1645.91 1592.36 1645.84 1595.04 1649.27 1596.67C1652.72 1598.43 1658.86 1598.87 1664.86 1595.42ZM1665.74 1621.19C1663.13 1617.38 1661.37 1613.05 1660.59 1608.51C1658.86 1611.53 1655.98 1622.24 1654.89 1629.83C1654.66 1631.6 1654.76 1632.28 1659.34 1632.44C1663.91 1632.64 1669.34 1631.09 1673.1 1628.21C1670.87 1626.27 1667.91 1624.41 1665.74 1621.19Z" fill="white"/>
<path d="M1912.39 1396.11L1926.7 1400.11L1710.95 1570.49H1710.98L1705.9 1574.6C1705.66 1574.63 1705.29 1574.63 1705.02 1574.76C1705.18 1577.17 1705.02 1579.61 1704.61 1581.82C1707.63 1581.65 1711.8 1581.65 1715.39 1582.6C1720.07 1583.89 1723.84 1586.97 1723.7 1590.09C1723.7 1594.43 1721.29 1607.42 1713.09 1608.6C1705.02 1609.69 1703.42 1605.89 1693.39 1605.49C1698.98 1608.67 1708.91 1614.6 1705.22 1622.23C1703.83 1625.28 1701.29 1628.54 1697.08 1632.88C1693.82 1636.27 1688.16 1635.56 1684.47 1632.44C1680.78 1629.39 1677.89 1626.78 1673.07 1625.49C1675.99 1627.96 1676.91 1631.42 1677.68 1633.8C1679.38 1638.55 1679.28 1644.28 1675.99 1646.44C1671.24 1649.36 1663.48 1651.22 1659.24 1651.63C1651.44 1652.37 1649.37 1645.32 1648.69 1641.15C1647.85 1635.93 1647.81 1631.25 1649.03 1626.94C1644.08 1629.35 1640.01 1643.49 1647.41 1654.48C1650.8 1659.63 1657.85 1661.8 1672.26 1656.78C1679.93 1654.03 1686.09 1651.12 1684.74 1643.08C1684.37 1640.61 1683.52 1638.33 1682.71 1636.13C1684.2 1637.76 1685.15 1639.69 1688.23 1641.55C1693.83 1644.67 1700.41 1641.76 1707.39 1633.86C1715.26 1624.8 1713.7 1620.3 1712.75 1617.72C1711.8 1615.14 1710.48 1613.99 1708.55 1612.77C1712.27 1614.33 1715.53 1613.92 1717.36 1613.65C1723.84 1612.94 1726.18 1609.51 1729.43 1599.85C1732.82 1589.75 1733.81 1586.8 1730.18 1580.96C1728.65 1578.49 1723.5 1576.49 1717.7 1575.37L1931.79 1406.51L1932.3 1421.4L1970.78 1370.43L1912.39 1396.11ZM1797.34 1448.5L1949.35 1256L1953.39 1270.34L1978.89 1211.88L1928.02 1250.44L1942.97 1251.01L1805.24 1425.5C1794.3 1442.19 1783.31 1458.85 1772.28 1475.48L1772.48 1475.68C1780.8 1466.65 1789.08 1457.58 1797.34 1448.5Z" fill="white"/>
<path d="M1779.23 1505.73C1791.98 1495.59 1805.24 1485.11 1818.29 1474.74L1944.9 1357.59L1946.77 1372.37L1980.88 1318.46L1924.83 1348.8L1939.38 1351.62L1812.29 1469.31C1800.97 1481.89 1789.78 1494.13 1779.23 1505.73ZM1919.92 1478.09L1741.53 1567.4C1738.45 1569.87 1735.9 1571.88 1734.34 1573.13C1735.6 1574.12 1736.58 1575.24 1737.43 1576.49C1737.8 1577.03 1738.04 1577.57 1738.31 1578.08L1923.51 1485.44L1921.01 1500.05L1969.02 1458.04L1906.6 1471.33L1919.92 1478.09ZM1650.45 1666.96C1647.84 1666.14 1645.44 1664.77 1643.39 1662.96L1611.49 1729.11L1611.65 1729.21L1600.02 1733.08L1562.22 1805.47L1580.56 1799.95L1587.14 1817.88L1622.91 1744.47L1618.71 1732.68L1650.45 1666.96Z" fill="white"/>
<path d="M1774.69 1541.33C1786.97 1535.16 1801.07 1528.04 1815.38 1520.82L1933.98 1443.44L1933.21 1458.29L1975.96 1410.99L1915.58 1431.37L1929.44 1436.59L1800.53 1520.92C1791.89 1527.7 1783.28 1534.5 1774.69 1541.33ZM1635.91 1649.3C1634.98 1645.76 1634.66 1642.09 1634.96 1638.44L1592.64 1684.66L1580.12 1685.67L1579.04 1686.72V1686.79L1520.15 1745.68L1522.92 1745.52L1522.65 1745.68L1523.43 1745.52L1537.91 1744.84L1540.49 1759.25L1589.31 1695.06L1598.74 1693.02L1635.91 1649.3ZM1713.96 1557.2C1719.11 1553.17 1726.61 1547.23 1735.56 1540.15L1943.72 1312.69L1946.57 1327.24L1976.37 1270.85L1922.87 1305.51L1937.62 1307.13L1719.76 1545.47C1717.88 1549.4 1715.95 1553.32 1713.96 1557.2ZM1527.7 1712.8L1605.25 1658.18C1614.1 1648.41 1623.9 1637.94 1627.29 1634.17L1530.45 1698.12L1530.52 1698.19L1518.38 1695.68L1511.33 1700.13L1449.21 1738.92L1466.64 1742.52L1468.78 1755.68L1518.83 1712.38L1527.7 1712.8ZM1463.52 1719.92L1494.58 1700.56L1523.5 1680.86L1533.4 1682.73C1533.4 1682.73 1604.03 1639.19 1621.19 1627.96C1622.11 1627.32 1622.62 1626.98 1622.62 1626.98C1622.82 1626.91 1622.96 1626.78 1623.16 1626.67L1530.52 1672.85L1518.69 1669.19L1444.94 1704.25L1461.56 1710.36L1463.52 1719.92ZM1813.14 1291.77L1827.72 1289.19L1694.53 1559.1C1695.55 1559.67 1696.57 1560.22 1697.28 1560.59C1698.84 1561.51 1700.16 1562.66 1701.25 1563.92L1835.05 1292.86L1841.93 1306.02L1854.88 1243.56L1813.14 1291.77ZM1829.04 1337.24L1843.93 1336.46L1760.35 1463.52C1750.52 1483.38 1740.99 1502.72 1732.58 1519.6C1733.02 1519.13 1733.43 1518.68 1733.8 1518.17L1850.85 1341.07L1855.93 1354.98L1876.51 1294.52L1829.04 1337.24Z" fill="white"/>
</svg>
