<svg viewBox="0 0 934 1209" version="1.1" xmlns="http://www.w3.org/2000/svg">
<defs>
<style>
.g0_4{fill:none;stroke:#000;stroke-width:1.527;stroke-miterlimit:10;}
.g1_4{fill:none;stroke:#000;stroke-width:1.145;stroke-miterlimit:10;}
.g2_4{fill:none;stroke:#000;stroke-width:0.763;stroke-miterlimit:10;}
</style>
</defs>
<path d="M54.6 73.3H825.4m-.8 0h55.8" class="g0_4"/>
<path d="M54.6 91.7H880.4M164.4 110h716M165 91.3v19.3M54.6 146.7H165.4m-1 0H225m-60-37.1v37.6m59.2-.5h60.3" class="g1_4"/>
<path d="M224.6 109.6v37.6" class="g2_4"/>
<path d="M283.8 146.7h60.3" class="g1_4"/>
<path d="M284.2 109.6v37.6" class="g2_4"/>
<path d="M343.4 146.7h60.3" class="g1_4"/>
<path d="M343.8 109.6v37.6" class="g2_4"/>
<path d="M403 146.7h60.3" class="g1_4"/>
<path d="M403.3 109.6v37.6" class="g2_4"/>
<path d="M462.5 146.7h60.4" class="g1_4"/>
<path d="M462.9 109.6v37.6" class="g2_4"/>
<path d="M522.1 146.7h60.4" class="g1_4"/>
<path d="M522.5 109.6v37.6" class="g2_4"/>
<path d="M581.7 146.7H642" class="g1_4"/>
<path d="M582.1 109.6v37.6" class="g2_4"/>
<path d="M641.3 146.7h60.3" class="g1_4"/>
<path d="M641.7 109.6v37.6" class="g2_4"/>
<path d="M700.9 146.7h60.3" class="g1_4"/>
<path d="M701.3 109.6v37.6" class="g2_4"/>
<path d="M760.5 146.7h60.3" class="g1_4"/>
<path d="M760.8 109.6v37.6" class="g2_4"/>
<path d="M820 146.7h60.4" class="g1_4"/>
<path d="M820.4 109.6v37.6" class="g2_4"/>
<path d="M165 146.3v19.1" class="g1_4"/>
<path d="M224.6 146.3v19.1m59.6-19.1v19.1m59.6-19.1v19.1m59.5-19.1v19.1m59.6-19.1v19.1m59.6-19.1v19.1m59.6-19.1v19.1m59.6-19.1v19.1m59.6-19.1v19.1m59.5-19.1v19.1m59.6-19.1v19.1" class="g2_4"/>
<path d="M165 164.6v19.1" class="g1_4"/>
<path d="M224.6 164.6v19.1m59.6-19.1v19.1m59.6-19.1v19.1m59.5-19.1v19.1m59.6-19.1v19.1m59.6-19.1v19.1m59.6-19.1v19.1m59.6-19.1v19.1m59.6-19.1v19.1m59.5-19.1v19.1m59.6-19.1v19.1m-765.8 18H165.4m-1 0H225" class="g2_4"/>
<path d="M165 182.9V202" class="g1_4"/>
<path d="M224.2 201.7h60.3m-59.9-18.8V202m59.2-.3h60.3m-59.9-18.8V202m59.2-.3h60.3m-59.9-18.8V202m59.2-.3h60.3m-60-18.8V202m59.2-.3h60.4m-60-18.8V202m59.2-.3h60.4m-60-18.8V202m59.2-.3H642m-59.9-18.8V202m59.2-.3h60.3m-59.9-18.8V202m59.2-.3h60.3m-59.9-18.8V202m59.2-.3h60.3m-60-18.8V202m59.2-.3h60.4m-60-18.8V202" class="g2_4"/>
<path d="M165 201.3v19.1" class="g1_4"/>
<path d="M224.6 201.3v19.1m59.6-19.1v19.1m59.6-19.1v19.1m59.5-19.1v19.1m59.6-19.1v19.1m59.6-19.1v19.1m59.6-19.1v19.1m59.6-19.1v19.1m59.6-19.1v19.1m59.5-19.1v19.1m59.6-19.1v19.1" class="g2_4"/>
<path d="M165 219.6v19.1" class="g1_4"/>
<path d="M224.6 219.6v19.1m59.6-19.1v19.1m59.6-19.1v19.1m59.5-19.1v19.1m59.6-19.1v19.1m59.6-19.1v19.1m59.6-19.1v19.1m59.6-19.1v19.1m59.6-19.1v19.1m59.5-19.1v19.1m59.6-19.1v19.1m-765.8 18H165.4m-1 0H225" class="g2_4"/>
<path d="M165 237.9V257" class="g1_4"/>
<path d="M224.2 256.7h60.3m-59.9-18.8V257m59.2-.3h60.3m-59.9-18.8V257m59.2-.3h60.3m-59.9-18.8V257m59.2-.3h60.3m-60-18.8V257m59.2-.3h60.4m-60-18.8V257m59.2-.3h60.4m-60-18.8V257m59.2-.3H642m-59.9-18.8V257m59.2-.3h60.3m-59.9-18.8V257m59.2-.3h60.3m-59.9-18.8V257m59.2-.3h60.3m-60-18.8V257m59.2-.3h60.4m-60-18.8V257" class="g2_4"/>
<path d="M165 256.3v19.1" class="g1_4"/>
<path d="M224.6 256.3v19.1m59.6-19.1v19.1m59.6-19.1v19.1m59.5-19.1v19.1m59.6-19.1v19.1m59.6-19.1v19.1m59.6-19.1v19.1m59.6-19.1v19.1m59.6-19.1v19.1m59.5-19.1v19.1m59.6-19.1v19.1" class="g2_4"/>
<path d="M165 274.6v19.1" class="g1_4"/>
<path d="M224.6 274.6v19.1m59.6-19.1v19.1m59.6-19.1v19.1m59.5-19.1v19.1m59.6-19.1v19.1m59.6-19.1v19.1m59.6-19.1v19.1m59.6-19.1v19.1m59.6-19.1v19.1m59.5-19.1v19.1m59.6-19.1v19.1m-765.8 18H165.4m-1 0H225" class="g2_4"/>
<path d="M165 292.9V312" class="g1_4"/>
<path d="M224.2 311.7h60.3m-59.9-18.8V312m59.2-.3h60.3m-59.9-18.8V312m59.2-.3h60.3m-59.9-18.8V312m59.2-.3h60.3m-60-18.8V312m59.2-.3h60.4m-60-18.8V312m59.2-.3h60.4m-60-18.8V312m59.2-.3H642m-59.9-18.8V312m59.2-.3h60.3m-59.9-18.8V312m59.2-.3h60.3m-59.9-18.8V312m59.2-.3h60.3m-60-18.8V312m59.2-.3h60.4m-60-18.8V312" class="g2_4"/>
<path d="M165 311.3v19.1" class="g1_4"/>
<path d="M224.6 311.3v19.1m59.6-19.1v19.1m59.6-19.1v19.1m59.5-19.1v19.1m59.6-19.1v19.1m59.6-19.1v19.1m59.6-19.1v19.1m59.6-19.1v19.1m59.6-19.1v19.1m59.5-19.1v19.1m59.6-19.1v19.1" class="g2_4"/>
<path d="M165 329.6v19.1" class="g1_4"/>
<path d="M224.6 329.6v19.1m59.6-19.1v19.1m59.6-19.1v19.1m59.5-19.1v19.1m59.6-19.1v19.1m59.6-19.1v19.1m59.6-19.1v19.1m59.6-19.1v19.1m59.6-19.1v19.1m59.5-19.1v19.1m59.6-19.1v19.1M54.6 366.6H165.4m-1 0H225" class="g2_4"/>
<path d="M165 347.9V367" class="g1_4"/>
<path d="M224.2 366.6h60.3m-59.9-18.7V367m59.2-.4h60.3m-59.9-18.7V367m59.2-.4h60.3m-59.9-18.7V367m59.2-.4h60.3m-60-18.7V367m59.2-.4h60.4m-60-18.7V367m59.2-.4h60.4m-60-18.7V367m59.2-.4H642m-59.9-18.7V367m59.2-.4h60.3m-59.9-18.7V367m59.2-.4h60.3m-59.9-18.7V367m59.2-.4h60.3m-60-18.7V367m59.2-.4h60.4m-60-18.7V367" class="g2_4"/>
<path d="M165 366.3v19.1" class="g1_4"/>
<path d="M224.6 366.3v19.1m59.6-19.1v19.1m59.6-19.1v19.1m59.5-19.1v19.1m59.6-19.1v19.1m59.6-19.1v19.1m59.6-19.1v19.1m59.6-19.1v19.1m59.6-19.1v19.1m59.5-19.1v19.1m59.6-19.1v19.1" class="g2_4"/>
<path d="M165 384.6v19.1" class="g1_4"/>
<path d="M224.6 384.6v19.1m59.6-19.1v19.1m59.6-19.1v19.1m59.5-19.1v19.1m59.6-19.1v19.1m59.6-19.1v19.1m59.6-19.1v19.1m59.6-19.1v19.1m59.6-19.1v19.1m59.5-19.1v19.1m59.6-19.1v19.1M54.6 421.6H165.4m-1 0H225" class="g2_4"/>
<path d="M165 402.9V422" class="g1_4"/>
<path d="M224.2 421.6h60.3m-59.9-18.7V422m59.2-.4h60.3m-59.9-18.7V422m59.2-.4h60.3m-59.9-18.7V422m59.2-.4h60.3m-60-18.7V422m59.2-.4h60.4m-60-18.7V422m59.2-.4h60.4m-60-18.7V422m59.2-.4H642m-59.9-18.7V422m59.2-.4h60.3m-59.9-18.7V422m59.2-.4h60.3m-59.9-18.7V422m59.2-.4h60.3m-60-18.7V422m59.2-.4h60.4m-60-18.7V422" class="g2_4"/>
<path d="M165 421.3v19.1" class="g1_4"/>
<path d="M224.6 421.3v19.1m59.6-19.1v19.1m59.6-19.1v19.1m59.5-19.1v19.1m59.6-19.1v19.1m59.6-19.1v19.1m59.6-19.1v19.1m59.6-19.1v19.1m59.6-19.1v19.1m59.5-19.1v19.1m59.6-19.1v19.1" class="g2_4"/>
<path d="M165 439.6v19.1" class="g1_4"/>
<path d="M224.6 439.6v19.1m59.6-19.1v19.1m59.6-19.1v19.1m59.5-19.1v19.1m59.6-19.1v19.1m59.6-19.1v19.1m59.6-19.1v19.1m59.6-19.1v19.1m59.6-19.1v19.1m59.5-19.1v19.1m59.6-19.1v19.1" class="g2_4"/>
<path d="M165 457.9V477" class="g1_4"/>
<path d="M224.6 457.9V477m59.6-19.1V477m59.6-19.1V477m59.5-19.1V477m59.6-19.1V477m59.6-19.1V477m59.6-19.1V477m59.6-19.1V477m59.6-19.1V477m59.5-19.1V477m59.6-19.1V477" class="g2_4"/>
<path d="M54.6 476.7H880.4" class="g0_4"/>
<path d="M54.6 495H880.4m-716 18.3h716M165 494.6v19.3M54.6 550H165.4m-1 0H225m-60-37.1v37.7m59.2-.6h60.3" class="g1_4"/>
<path d="M224.6 512.9v37.7" class="g2_4"/>
<path d="M283.8 550h60.3" class="g1_4"/>
<path d="M284.2 512.9v37.7" class="g2_4"/>
<path d="M343.4 550h60.3" class="g1_4"/>
<path d="M343.8 512.9v37.7" class="g2_4"/>
<path d="M403 550h60.3" class="g1_4"/>
<path d="M403.3 512.9v37.7" class="g2_4"/>
<path d="M462.5 550h60.4" class="g1_4"/>
<path d="M462.9 512.9v37.7" class="g2_4"/>
<path d="M522.1 550h60.4" class="g1_4"/>
<path d="M522.5 512.9v37.7" class="g2_4"/>
<path d="M581.7 550H642" class="g1_4"/>
<path d="M582.1 512.9v37.7" class="g2_4"/>
<path d="M641.3 550h60.3" class="g1_4"/>
<path d="M641.7 512.9v37.7" class="g2_4"/>
<path d="M700.9 550h60.3" class="g1_4"/>
<path d="M701.3 512.9v37.7" class="g2_4"/>
<path d="M760.5 550h60.3" class="g1_4"/>
<path d="M760.8 512.9v37.7" class="g2_4"/>
<path d="M820 550h60.4" class="g1_4"/>
<path d="M820.4 512.9v37.7" class="g2_4"/>
<path d="M165 549.6v19.1" class="g1_4"/>
<path d="M224.6 549.6v19.1m59.6-19.1v19.1m59.6-19.1v19.1m59.5-19.1v19.1m59.6-19.1v19.1m59.6-19.1v19.1m59.6-19.1v19.1m59.6-19.1v19.1m59.6-19.1v19.1m59.5-19.1v19.1m59.6-19.1v19.1" class="g2_4"/>
<path d="M165 567.9V587" class="g1_4"/>
<path d="M224.6 567.9V587m59.6-19.1V587m59.6-19.1V587m59.5-19.1V587m59.6-19.1V587m59.6-19.1V587m59.6-19.1V587m59.6-19.1V587m59.6-19.1V587m59.5-19.1V587m59.6-19.1V587M54.6 605H165.4m-1 0H225" class="g2_4"/>
<path d="M165 586.3v19.1" class="g1_4"/>
<path d="M224.2 605h60.3m-59.9-18.7v19.1m59.2-.4h60.3m-59.9-18.7v19.1m59.2-.4h60.3m-59.9-18.7v19.1M403 605h60.3m-60-18.7v19.1m59.2-.4h60.4m-60-18.7v19.1m59.2-.4h60.4m-60-18.7v19.1m59.2-.4H642m-59.9-18.7v19.1m59.2-.4h60.3m-59.9-18.7v19.1m59.2-.4h60.3m-59.9-18.7v19.1m59.2-.4h60.3m-60-18.7v19.1M820 605h60.4m-60-18.7v19.1" class="g2_4"/>
<path d="M165 604.6v19.1" class="g1_4"/>
<path d="M224.6 604.6v19.1m59.6-19.1v19.1m59.6-19.1v19.1m59.5-19.1v19.1m59.6-19.1v19.1m59.6-19.1v19.1m59.6-19.1v19.1m59.6-19.1v19.1m59.6-19.1v19.1m59.5-19.1v19.1m59.6-19.1v19.1" class="g2_4"/>
<path d="M165 622.9V642" class="g1_4"/>
<path d="M224.6 622.9V642m59.6-19.1V642m59.6-19.1V642m59.5-19.1V642m59.6-19.1V642m59.6-19.1V642m59.6-19.1V642m59.6-19.1V642m59.6-19.1V642m59.5-19.1V642m59.6-19.1V642M54.6 660H165.4m-1 0H225" class="g2_4"/>
<path d="M165 641.3v19.1" class="g1_4"/>
<path d="M224.2 660h60.3m-59.9-18.7v19.1m59.2-.4h60.3m-59.9-18.7v19.1m59.2-.4h60.3m-59.9-18.7v19.1M403 660h60.3m-60-18.7v19.1m59.2-.4h60.4m-60-18.7v19.1m59.2-.4h60.4m-60-18.7v19.1m59.2-.4H642m-59.9-18.7v19.1m59.2-.4h60.3m-59.9-18.7v19.1m59.2-.4h60.3m-59.9-18.7v19.1m59.2-.4h60.3m-60-18.7v19.1M820 660h60.4m-60-18.7v19.1" class="g2_4"/>
<path d="M165 659.6v19.1" class="g1_4"/>
<path d="M224.6 659.6v19.1m59.6-19.1v19.1m59.6-19.1v19.1m59.5-19.1v19.1m59.6-19.1v19.1m59.6-19.1v19.1m59.6-19.1v19.1m59.6-19.1v19.1m59.6-19.1v19.1m59.5-19.1v19.1m59.6-19.1v19.1" class="g2_4"/>
<path d="M165 677.9V697" class="g1_4"/>
<path d="M224.6 677.9V697m59.6-19.1V697m59.6-19.1V697m59.5-19.1V697m59.6-19.1V697m59.6-19.1V697m59.6-19.1V697m59.6-19.1V697m59.6-19.1V697m59.5-19.1V697m59.6-19.1V697M54.6 715H165.4m-1 0H225" class="g2_4"/>
<path d="M165 696.3v19.1" class="g1_4"/>
<path d="M224.2 715h60.3m-59.9-18.7v19.1m59.2-.4h60.3m-59.9-18.7v19.1m59.2-.4h60.3m-59.9-18.7v19.1M403 715h60.3m-60-18.7v19.1m59.2-.4h60.4m-60-18.7v19.1m59.2-.4h60.4m-60-18.7v19.1m59.2-.4H642m-59.9-18.7v19.1m59.2-.4h60.3m-59.9-18.7v19.1m59.2-.4h60.3m-59.9-18.7v19.1m59.2-.4h60.3m-60-18.7v19.1M820 715h60.4m-60-18.7v19.1" class="g2_4"/>
<path d="M165 714.6v19.1" class="g1_4"/>
<path d="M224.6 714.6v19.1m59.6-19.1v19.1m59.6-19.1v19.1m59.5-19.1v19.1m59.6-19.1v19.1m59.6-19.1v19.1m59.6-19.1v19.1m59.6-19.1v19.1m59.6-19.1v19.1m59.5-19.1v19.1m59.6-19.1v19.1" class="g2_4"/>
<path d="M165 732.9V752" class="g1_4"/>
<path d="M224.6 732.9V752m59.6-19.1V752m59.6-19.1V752m59.5-19.1V752m59.6-19.1V752m59.6-19.1V752m59.6-19.1V752m59.6-19.1V752m59.6-19.1V752m59.5-19.1V752m59.6-19.1V752M54.6 770H165.4m-1 0H225" class="g2_4"/>
<path d="M165 751.3v19.1" class="g1_4"/>
<path d="M224.2 770h60.3m-59.9-18.7v19.1m59.2-.4h60.3m-59.9-18.7v19.1m59.2-.4h60.3m-59.9-18.7v19.1M403 770h60.3m-60-18.7v19.1m59.2-.4h60.4m-60-18.7v19.1m59.2-.4h60.4m-60-18.7v19.1m59.2-.4H642m-59.9-18.7v19.1m59.2-.4h60.3m-59.9-18.7v19.1m59.2-.4h60.3m-59.9-18.7v19.1m59.2-.4h60.3m-60-18.7v19.1M820 770h60.4m-60-18.7v19.1" class="g2_4"/>
<path d="M165 769.6v19.1" class="g1_4"/>
<path d="M224.6 769.6v19.1m59.6-19.1v19.1m59.6-19.1v19.1m59.5-19.1v19.1m59.6-19.1v19.1m59.6-19.1v19.1m59.6-19.1v19.1m59.6-19.1v19.1m59.6-19.1v19.1m59.5-19.1v19.1m59.6-19.1v19.1" class="g2_4"/>
<path d="M165 787.9V807" class="g1_4"/>
<path d="M224.6 787.9V807m59.6-19.1V807m59.6-19.1V807m59.5-19.1V807m59.6-19.1V807m59.6-19.1V807m59.6-19.1V807m59.6-19.1V807m59.6-19.1V807m59.5-19.1V807m59.6-19.1V807" class="g2_4"/>
<path d="M165 806.3v19.3" class="g1_4"/>
<path d="M224.6 806.3v19.3m59.6-19.3v19.3m59.6-19.3v19.3m59.5-19.3v19.3m59.6-19.3v19.3m59.6-19.3v19.3m59.6-19.3v19.3m59.6-19.3v19.3m59.6-19.3v19.3m59.5-19.3v19.3m59.6-19.3v19.3" class="g2_4"/>
<path d="M54.6 825H880.4" class="g0_4"/>
<path d="M54.6 843.3H880.4m-716 18.4h716M165 842.9v19.3M54.6 898.3H165.4m-1 0H225m-60-37v37.6m59.2-.6h60.3" class="g1_4"/>
<path d="M224.6 861.3v37.6" class="g2_4"/>
<path d="M283.8 898.3h60.3" class="g1_4"/>
<path d="M284.2 861.3v37.6" class="g2_4"/>
<path d="M343.4 898.3h60.3" class="g1_4"/>
<path d="M343.8 861.3v37.6" class="g2_4"/>
<path d="M403 898.3h60.3" class="g1_4"/>
<path d="M403.3 861.3v37.6" class="g2_4"/>
<path d="M462.5 898.3h60.4" class="g1_4"/>
<path d="M462.9 861.3v37.6" class="g2_4"/>
<path d="M522.1 898.3h60.4" class="g1_4"/>
<path d="M522.5 861.3v37.6" class="g2_4"/>
<path d="M581.7 898.3H642" class="g1_4"/>
<path d="M582.1 861.3v37.6" class="g2_4"/>
<path d="M641.3 898.3h60.3" class="g1_4"/>
<path d="M641.7 861.3v37.6" class="g2_4"/>
<path d="M700.9 898.3h60.3" class="g1_4"/>
<path d="M701.3 861.3v37.6" class="g2_4"/>
<path d="M760.5 898.3h60.3" class="g1_4"/>
<path d="M760.8 861.3v37.6" class="g2_4"/>
<path d="M820 898.3h60.4" class="g1_4"/>
<path d="M820.4 861.3v37.6" class="g2_4"/>
<path d="M165 898v19.1" class="g1_4"/>
<path d="M224.6 898v19.1M284.2 898v19.1M343.8 898v19.1M403.3 898v19.1M462.9 898v19.1M522.5 898v19.1M582.1 898v19.1M641.7 898v19.1M701.3 898v19.1M760.8 898v19.1M820.4 898v19.1" class="g2_4"/>
<path d="M165 916.3v19.1" class="g1_4"/>
<path d="M224.6 916.3v19.1m59.6-19.1v19.1m59.6-19.1v19.1m59.5-19.1v19.1m59.6-19.1v19.1m59.6-19.1v19.1m59.6-19.1v19.1m59.6-19.1v19.1m59.6-19.1v19.1m59.5-19.1v19.1m59.6-19.1v19.1M54.6 953.3H165.4m-1 0H225" class="g2_4"/>
<path d="M165 934.6v19.1" class="g1_4"/>
<path d="M224.2 953.3h60.3m-59.9-18.7v19.1m59.2-.4h60.3m-59.9-18.7v19.1m59.2-.4h60.3m-59.9-18.7v19.1m59.2-.4h60.3m-60-18.7v19.1m59.2-.4h60.4m-60-18.7v19.1m59.2-.4h60.4m-60-18.7v19.1m59.2-.4H642m-59.9-18.7v19.1m59.2-.4h60.3m-59.9-18.7v19.1m59.2-.4h60.3m-59.9-18.7v19.1m59.2-.4h60.3m-60-18.7v19.1m59.2-.4h60.4m-60-18.7v19.1" class="g2_4"/>
<path d="M165 952.9V972" class="g1_4"/>
<path d="M224.6 952.9V972m59.6-19.1V972m59.6-19.1V972m59.5-19.1V972m59.6-19.1V972m59.6-19.1V972m59.6-19.1V972m59.6-19.1V972m59.6-19.1V972m59.5-19.1V972m59.6-19.1V972" class="g2_4"/>
<path d="M165 971.3v19.1" class="g1_4"/>
<path d="M224.6 971.3v19.1m59.6-19.1v19.1m59.6-19.1v19.1m59.5-19.1v19.1m59.6-19.1v19.1m59.6-19.1v19.1m59.6-19.1v19.1m59.6-19.1v19.1m59.6-19.1v19.1m59.5-19.1v19.1m59.6-19.1v19.1M54.6 1008.3H165.4m-1 0H225" class="g2_4"/>
<path d="M165 989.6v19.1" class="g1_4"/>
<path d="M224.2 1008.3h60.3m-59.9-18.7v19.1m59.2-.4h60.3m-59.9-18.7v19.1m59.2-.4h60.3m-59.9-18.7v19.1m59.2-.4h60.3m-60-18.7v19.1m59.2-.4h60.4m-60-18.7v19.1m59.2-.4h60.4m-60-18.7v19.1m59.2-.4H642m-59.9-18.7v19.1m59.2-.4h60.3m-59.9-18.7v19.1m59.2-.4h60.3m-59.9-18.7v19.1m59.2-.4h60.3m-60-18.7v19.1m59.2-.4h60.4m-60-18.7v19.1" class="g2_4"/>
<path d="M165 1007.9V1027" class="g1_4"/>
<path d="M224.6 1007.9V1027m59.6-19.1V1027m59.6-19.1V1027m59.5-19.1V1027m59.6-19.1V1027m59.6-19.1V1027m59.6-19.1V1027m59.6-19.1V1027m59.6-19.1V1027m59.5-19.1V1027m59.6-19.1V1027" class="g2_4"/>
<path d="M165 1026.3v19.1" class="g1_4"/>
<path d="M224.6 1026.3v19.1m59.6-19.1v19.1m59.6-19.1v19.1m59.5-19.1v19.1m59.6-19.1v19.1m59.6-19.1v19.1m59.6-19.1v19.1m59.6-19.1v19.1m59.6-19.1v19.1m59.5-19.1v19.1m59.6-19.1v19.1M54.6 1063.3H165.4m-1 0H225" class="g2_4"/>
<path d="M165 1044.6v19.1" class="g1_4"/>
<path d="M224.2 1063.3h60.3m-59.9-18.7v19.1m59.2-.4h60.3m-59.9-18.7v19.1m59.2-.4h60.3m-59.9-18.7v19.1m59.2-.4h60.3m-60-18.7v19.1m59.2-.4h60.4m-60-18.7v19.1m59.2-.4h60.4m-60-18.7v19.1m59.2-.4H642m-59.9-18.7v19.1m59.2-.4h60.3m-59.9-18.7v19.1m59.2-.4h60.3m-59.9-18.7v19.1m59.2-.4h60.3m-60-18.7v19.1m59.2-.4h60.4m-60-18.7v19.1" class="g2_4"/>
<path d="M165 1062.9V1082" class="g1_4"/>
<path d="M224.6 1062.9V1082m59.6-19.1V1082m59.6-19.1V1082m59.5-19.1V1082m59.6-19.1V1082m59.6-19.1V1082m59.6-19.1V1082m59.6-19.1V1082m59.6-19.1V1082m59.5-19.1V1082m59.6-19.1V1082" class="g2_4"/>
<path d="M165 1081.3v19.1" class="g1_4"/>
<path d="M224.6 1081.3v19.1m59.6-19.1v19.1m59.6-19.1v19.1m59.5-19.1v19.1m59.6-19.1v19.1m59.6-19.1v19.1m59.6-19.1v19.1m59.6-19.1v19.1m59.6-19.1v19.1m59.5-19.1v19.1m59.6-19.1v19.1M54.6 1118.3H165.4m-1 0H225" class="g2_4"/>
<path d="M165 1099.6v19.1" class="g1_4"/>
<path d="M224.2 1118.3h60.3m-59.9-18.7v19.1m59.2-.4h60.3m-59.9-18.7v19.1m59.2-.4h60.3m-59.9-18.7v19.1m59.2-.4h60.3m-60-18.7v19.1m59.2-.4h60.4m-60-18.7v19.1m59.2-.4h60.4m-60-18.7v19.1m59.2-.4H642m-59.9-18.7v19.1m59.2-.4h60.3m-59.9-18.7v19.1m59.2-.4h60.3m-59.9-18.7v19.1m59.2-.4h60.3m-60-18.7v19.1m59.2-.4h60.4m-60-18.7v19.1" class="g2_4"/>
<path d="M165 1117.9V1137" class="g1_4"/>
<path d="M224.6 1117.9V1137m59.6-19.1V1137m59.6-19.1V1137m59.5-19.1V1137m59.6-19.1V1137m59.6-19.1V1137m59.6-19.1V1137m59.6-19.1V1137m59.6-19.1V1137m59.5-19.1V1137m59.6-19.1V1137" class="g2_4"/>
<path d="M54.6 1155H165.4m-1 0H225" class="g0_4"/>
<path d="M165 1136.3v19.4" class="g1_4"/>
<path d="M224.2 1155h60.3" class="g0_4"/>
<path d="M224.6 1136.3v19.4" class="g2_4"/>
<path d="M283.8 1155h60.3" class="g0_4"/>
<path d="M284.2 1136.3v19.4" class="g2_4"/>
<path d="M343.4 1155h60.3" class="g0_4"/>
<path d="M343.8 1136.3v19.4" class="g2_4"/>
<path d="M403 1155h60.3" class="g0_4"/>
<path d="M403.3 1136.3v19.4" class="g2_4"/>
<path d="M462.5 1155h60.4" class="g0_4"/>
<path d="M462.9 1136.3v19.4" class="g2_4"/>
<path d="M522.1 1155h60.4" class="g0_4"/>
<path d="M522.5 1136.3v19.4" class="g2_4"/>
<path d="M581.7 1155H642" class="g0_4"/>
<path d="M582.1 1136.3v19.4" class="g2_4"/>
<path d="M641.3 1155h60.3" class="g0_4"/>
<path d="M641.7 1136.3v19.4" class="g2_4"/>
<path d="M700.9 1155h60.3" class="g0_4"/>
<path d="M701.3 1136.3v19.4" class="g2_4"/>
<path d="M760.5 1155h60.3" class="g0_4"/>
<path d="M760.8 1136.3v19.4" class="g2_4"/>
<path d="M820 1155h60.4" class="g0_4"/>
<path d="M820.4 1136.3v19.4" class="g2_4"/>
</svg>